name C:\Users\r0593348\3dpredictsim\Results\Batchsim_tmt_linear_v2\Pog_s1_tmt_bCst_d00_k500_ig24.mot
datacolumns 128
datarows 4
range 1.60893833 1.64111709
endheader
time	pelvis_tilt	pelvis_list	pelvis_rotation	pelvis_tx	pelvis_ty	pelvis_tz	hip_flexion_l	hip_adduction_l	hip_rotation_l	hip_flexion_r	hip_adduction_r	hip_rotation_r	knee_angle_l	knee_angle_r	ankle_angle_l	ankle_angle_r	subtalar_angle_l	subtalar_angle_r	tmt_angle_l	tmt_angle_r	mtp_angle_l	mtp_angle_r	lumbar_extension	lumbar_bending	lumbar_rotation	arm_flex_l	arm_add_l	arm_rot_l	arm_flex_r	arm_add_r	arm_rot_r	elbow_flex_l	elbow_flex_r	pro_sup_l	pro_sup_r	glut_med1_l/activation	glut_med2_l/activation	glut_med3_l/activation	glut_min1_l/activation	glut_min2_l/activation	glut_min3_l/activation	semimem_l/activation	semiten_l/activation	bifemlh_l/activation	bifemsh_l/activation	sar_l/activation	add_long_l/activation	add_brev_l/activation	add_mag1_l/activation	add_mag2_l/activation	add_mag3_l/activation	tfl_l/activation	pect_l/activation	grac_l/activation	glut_max1_l/activation	glut_max2_l/activation	glut_max3_l/activation	iliacus_l/activation	psoas_l/activation	quad_fem_l/activation	gem_l/activation	peri_l/activation	rect_fem_l/activation	vas_med_l/activation	vas_int_l/activation	vas_lat_l/activation	med_gas_l/activation	lat_gas_l/activation	soleus_l/activation	tib_post_l/activation	flex_dig_l/activation	flex_hal_l/activation	tib_ant_l/activation	per_brev_l/activation	per_long_l/activation	per_tert_l/activation	ext_dig_l/activation	ext_hal_l/activation	ercspn_l/activation	intobl_l/activation	extobl_l/activation	glut_med1_r/activation	glut_med2_r/activation	glut_med3_r/activation	glut_min1_r/activation	glut_min2_r/activation	glut_min3_r/activation	semimem_r/activation	semiten_r/activation	bifemlh_r/activation	bifemsh_r/activation	sar_r/activation	add_long_r/activation	add_brev_r/activation	add_mag1_r/activation	add_mag2_r/activation	add_mag3_r/activation	tfl_r/activation	pect_r/activation	grac_r/activation	glut_max1_r/activation	glut_max2_r/activation	glut_max3_r/activation	iliacus_r/activation	psoas_r/activation	quad_fem_r/activation	gem_r/activation	peri_r/activation	rect_fem_r/activation	vas_med_r/activation	vas_int_r/activation	vas_lat_r/activation	med_gas_r/activation	lat_gas_r/activation	soleus_r/activation	tib_post_r/activation	flex_dig_r/activation	flex_hal_r/activation	tib_ant_r/activation	per_brev_r/activation	per_long_r/activation	per_tert_r/activation	ext_dig_r/activation	ext_hal_r/activation	ercspn_r/activation	intobl_r/activation	extobl_r/activation	
          1.60893833	         -2.91437520	         -1.13297592	         -4.85070708	          2.01117291	          0.87114018	          0.00257896	         27.20100970	         -0.55899797	         -2.04814184	        -17.46421502	          1.59013060	          6.52854533	         -8.40502299	         -6.58057257	          6.31491366	         -8.63294647	          4.31808844	          8.86888090	          0.07231491	          2.10444996	         -0.09020581	         26.17990446	          0.57787691	          3.11758339	          1.55915010	         -8.79068824	        -13.44971124	         14.29625538	          3.91167548	        -13.48007510	         12.81762399	         16.35132952	         25.39813008	         86.51662706	         86.51662706	          0.10313980	          0.05000654	          0.08076240	          0.05000012	          0.05000024	          0.05893727	          0.05893856	          0.05893858	          0.05893861	          0.05000165	          0.05000032	          0.05000019	          0.08483360	          0.12603738	          0.14259012	          0.11494991	          0.05000508	          0.05000190	          0.05893846	          0.06947501	          0.09166405	          0.12743766	          0.05000004	          0.05000005	          0.15933559	          0.05001448	          0.06239424	          0.05000006	          0.05000348	          0.07880949	          0.05000142	          0.05893853	          0.05893852	          0.05893853	          0.05000579	          0.05136031	          0.05893837	          0.46335504	          0.27169867	          0.16648376	          0.19348973	          0.49161798	          0.22915984	          0.05000003	          0.13413643	          0.12820435	          0.29850304	          0.08628238	          0.07590929	          0.27117569	          0.15956588	          0.08781057	          0.05000062	          0.05000010	          0.05000008	          0.05000011	          0.08211416	          0.06444497	          0.05000023	          0.05000031	          0.05000095	          0.05000046	          0.22901125	          0.05000289	          0.05000033	          0.05000148	          0.05000091	          0.05000080	          0.30433749	          0.57348813	          0.05000007	          0.05000028	          0.05351180	          0.21970255	          0.09051915	          0.08548405	          0.07759563	          0.17371309	          0.24775408	          0.20306957	          0.18951839	          0.19273442	          0.24625521	          0.05000000	          0.09797798	          0.15095560	          0.05000009	          0.05000002	          0.05000007	          0.05000000	          0.05000001	          0.05000009	
          1.61966458	         -2.89453498	         -1.16580072	         -4.98955698	          2.02802163	          0.86995272	          0.00243730	         26.67330809	         -0.35636639	         -1.83366224	        -17.18640239	          1.45821613	          6.27364721	         -8.61736741	         -8.86199620	          5.64657825	         -9.30798117	          3.89390618	          9.94995714	          0.07127254	          1.90438952	         -0.07343577	         26.95280680	          0.79815088	          2.91284153	          1.61065139	         -9.93576536	        -13.45260057	         14.13339017	          3.65281970	        -13.51207594	         13.09914736	         16.38493717	         26.21989015	         86.51662706	         86.51662706	          0.08749777	          0.05000015	          0.06851414	          0.05000189	          0.05000057	          0.05000023	          0.05000002	          0.05000006	          0.05000007	          0.05000004	          0.05000462	          0.08189861	          0.08635005	          0.23598145	          0.20802591	          0.11469060	          0.05000017	          0.05001010	          0.05000020	          0.05893861	          0.07776246	          0.14573051	          0.05307177	          0.05470793	          0.35972672	          0.11863148	          0.13853660	          0.08189522	          0.28652138	          0.30008727	          0.23868361	          0.05000000	          0.05000001	          0.05000000	          0.05000003	          0.05000071	          0.05000024	          0.54408042	          0.26067500	          0.18108308	          0.40714213	          0.54997446	          0.31540920	          0.05000001	          0.11379347	          0.10876104	          0.25323247	          0.07319691	          0.06439702	          0.23004959	          0.13536635	          0.07449335	          0.05000090	          0.05000010	          0.05000013	          0.05000009	          0.06966093	          0.14019422	          0.20609250	          0.12895574	          0.05000479	          0.05000096	          0.19427973	          0.06118127	          0.05000175	          0.05000122	          0.05000080	          0.05000095	          0.25818206	          0.48651368	          0.05894232	          0.05893917	          0.05893855	          0.18638275	          0.13413573	          0.13413633	          0.10867140	          0.14736799	          0.21018002	          0.17227230	          0.16077631	          0.16350474	          0.20890854	          0.05000001	          0.08311880	          0.12806195	          0.05000007	          0.05000006	          0.05000007	          0.05000015	          0.08189514	          0.07572043	
          1.63039084	         -2.86865333	         -1.17886549	         -5.10544728	          2.04509163	          0.86859220	          0.00230463	         26.01102864	         -0.19651640	         -1.57697727	        -16.80925552	          1.31844587	          6.00449200	         -9.24659141	        -11.33213119	          4.95315367	         -9.91467146	          3.44681816	         10.99428549	         -0.07095822	          1.61210946	         -0.13566603	         27.27193211	          1.03130179	          2.67653933	          1.65182755	        -11.08220085	        -13.46783310	         14.03469239	          3.33338110	        -13.54936698	         13.33242712	         16.41092272	         27.04375780	         86.51662706	         86.51662706	          0.28159195	          0.19879434	          0.22904506	          0.05000025	          0.05000025	          0.27585965	          0.08040421	          0.05000040	          0.08029975	          0.05000008	          0.05000024	          0.06947812	          0.09653517	          0.20019287	          0.17647728	          0.12977725	          0.05000057	          0.06947337	          0.09652935	          0.05000019	          0.06596916	          0.12362931	          0.05893836	          0.05000857	          0.30517104	          0.10064003	          0.18676619	          0.06947510	          0.24306793	          0.25457642	          0.20248517	          0.05893855	          0.05893858	          0.05893854	          0.05000497	          0.05893858	          0.05893859	          0.46156588	          0.29295933	          0.15362034	          0.34539551	          0.57671190	          0.41499151	          0.05000000	          0.09653570	          0.09226648	          0.26178407	          0.06209597	          0.05463068	          0.19516065	          0.11483689	          0.06319581	          0.05000083	          0.05000013	          0.05000019	          0.05000003	          0.05909633	          0.13739386	          0.35676020	          0.10939944	          0.05894205	          0.11709390	          0.16481555	          0.05190305	          0.05000032	          0.05024120	          0.05893728	          0.05893839	          0.21902651	          0.43747435	          0.05000387	          0.05000072	          0.05000005	          0.15811618	          0.11379292	          0.11379342	          0.09219047	          0.12501835	          0.17830439	          0.14614570	          0.13639319	          0.13870788	          0.17722578	          0.05656447	          0.08168110	          0.14331264	          0.05000013	          0.16842483	          0.05000578	          0.05000008	          0.06947503	          0.06423689	
          1.64111709	         -2.83962618	         -1.17558124	         -5.19750327	          2.06217035	          0.86704155	          0.00217223	         25.21344543	         -0.05321980	         -1.30256262	        -16.32929251	          1.17750196	          5.72532273	         -9.84538248	        -13.97665982	          4.38723699	        -10.33219675	          2.97277175	         11.96437090	         -0.01275126	          1.22890921	         -0.15855014	         26.86176538	          1.25752424	          2.41509722	          1.68244950	        -12.18704926	        -13.49504713	         14.02215684	          2.99046939	        -13.59364552	         13.53653586	         16.40404822	         27.85642448	         86.51662706	         86.51662706	          0.33148607	          0.32397189	          0.35842997	          0.18867820	          0.19521137	          0.23402647	          0.06821028	          0.08951063	          0.06947792	          0.07631998	          0.05000160	          0.05894118	          0.08189479	          0.16983194	          0.17304798	          0.15922597	          0.05000012	          0.05893732	          0.08189109	          0.21428770	          0.16640758	          0.16229140	          0.05000008	          0.05000007	          0.25888921	          0.08537724	          0.15844244	          0.05893860	          0.20620459	          0.21596773	          0.17177655	          0.05000002	          0.05000005	          0.05000000	          0.05000000	          0.05000009	          0.05000008	          0.61626845	          0.29812136	          0.15337385	          0.61832501	          0.64048089	          0.35205470	          0.05000320	          0.08189522	          0.07827346	          0.22208226	          0.05267859	          0.05000000	          0.16556326	          0.09742090	          0.05361164	          0.05002071	          0.05000045	          0.05000027	          0.05000054	          0.05893962	          0.17094924	          0.30835404	          0.09280832	          0.05000354	          0.09933575	          0.13981989	          0.08231981	          0.05000070	          0.05000020	          0.05000015	          0.05000019	          0.18580924	          0.38226707	          0.05000001	          0.05000011	          0.05000012	          0.13413648	          0.09653524	          0.09653567	          0.07820899	          0.10605822	          0.15126298	          0.12398143	          0.11570801	          0.11767172	          0.15034801	          0.09308224	          0.10053094	          0.12157806	          0.12084150	          0.22046044	          0.10831059	          0.08552342	          0.05893854	          0.05449481	
